Simulation
nRows=45
nColumns=15
endheader
time  TH_x TH_y TH_z SC_y  SC_z  SC_x  AC_y  AC_z  AC_x  GH_y  GH_z  GH_yy  EL_x  PS_y
1.95  0.000000  0.000000  0.000000  -32.96426984389464  10.412556916149066  15.235675572513896  63.561057256700195  15.320527318690564  8.030946851489256  46.79076547250476  60.27604377152688  -40.31762644759174  22.318682852492806  0.000000
1.989  0.000000  0.000000  0.000000  -32.66634139810414  9.992986702919975  14.40849152778009  63.49767540396154  15.234067440382768  7.535011702351621  46.966273852492826  59.177311703866  -39.637271798639524  22.518287768962054  0.000000
2.028  0.000000  0.000000  0.000000  -32.29672044782158  9.523865346604056  13.50703287720063  63.38426114297806  15.153412703910933  7.006063218769557  47.09808044796279  57.932174760331755  -38.83613849096605  22.723118174129084  0.000000
2.067  0.000000  0.000000  0.000000  -31.870849340753345  9.00935593044179  12.566008816240155  63.23893874274983  15.044813886027649  6.439750634891953  47.17686028287158  56.5546377323398  -37.9179205552514  22.926621487073785  0.000000
2.106  0.000000  0.000000  0.000000  -31.401884934533108  8.449321991284322  11.59207775770926  63.07264064256949  14.906578969528772  5.844983421533489  47.19772294040183  55.0556876418498  -36.89554024033199  23.121534617266207  0.000000
2.145  0.000000  0.000000  0.000000  -30.902358151474868  7.846397202311246  10.597478500558212  62.89201175579488  14.743979113745583  5.233618376513796  47.155902649001  53.445308166536336  -35.78285263014596  23.300634898982473  0.000000
2.184  0.000000  0.000000  0.000000  -30.390800728559945  7.212765156525615  9.5992533671838  62.70154210985104  14.560322487223827  4.6224627513373155  47.05106124058792  51.73636888252  -34.594525293631335  23.457400040286828  0.000000
2.223  0.000000  0.000000  0.000000  -29.881187642934183  6.56308338915224  8.625920415529322  62.50498400584123  14.344583683664606  4.018697805279997  46.88428714971274  49.94891658202952  -33.34381474147234  23.587321598139503  0.000000
2.262  0.000000  0.000000  0.000000  -29.39241616593735  5.909328698884814  7.710083999489523  62.30727175178503  14.073124090037783  3.420671947337429  46.65443028881574  48.10657148349455  -32.03977268462485  23.691426648817764  0.000000
2.301  0.000000  0.000000  0.000000  -28.93865199816637  5.256226224133075  6.8746592909283475  62.10790304289619  13.728714204377537  2.820903781170935  46.34866762308408  46.226713700794555  -30.67622840040239  23.778306271129775  0.000000
2.34  0.000000  0.000000  0.000000  -28.52246307890825  4.601890526235666  6.123942310092595  61.89901733863509  13.31629424089601  2.2101250801818506  45.93986243414925  44.31551514973196  -29.231511652967573  23.86257863771658  0.000000
2.379  0.000000  0.000000  0.000000  -28.146267848134308  3.9509187158508183  5.435311724503279  61.66827568172354  12.862265991530442  1.5978724997763816  45.41551623354945  42.37655943421645  -27.68681294498237  23.96073028211154  0.000000
2.418  0.000000  0.000000  0.000000  -27.803964095333786  3.3183484104281846  4.788294827834374  61.39771454204754  12.383259489474334  0.9962359179792492  44.78348307974309  40.41453821287225  -26.034748790071653  24.091684069908165  0.000000
2.457  0.000000  0.000000  0.000000  -27.477840115478866  2.7099705527105367  4.1664087041735165  61.06520760316706  11.89135900512378  0.4048123650360319  44.05690268890631  38.43422942191637  -24.276013573404335  24.27681241795789  0.000000
2.496  0.000000  0.000000  0.000000  -27.152601856171632  2.128980518340277  3.537468534540287  60.647055190476756  11.41258670523581  -0.171684707312379  43.247216080615694  36.44268113168222  -22.41276611623777  24.535532895164902  0.000000
2.535  0.000000  0.000000  0.000000  -26.81523228183022  1.566089410324061  2.8662027557884318  60.12925221090564  10.995476546795228  -0.7387614804425652  42.3647492923433  34.45751860998031  -20.4558490226861  24.879438745542032  0.000000
2.574  0.000000  0.000000  0.000000  -26.456510205680235  1.011295107236856  2.142273747156148  59.50307630144152  10.68276866816461  -1.307378453585667  41.41313064721313  32.50156835947023  -18.418893464561833  25.30283790200402  0.000000
2.613  0.000000  0.000000  0.000000  -26.09287897245856  0.4605677595898401  1.429883505264285  58.78537669412221  10.451585578372267  -1.9203245950969896  40.38954432390833  30.593987774792993  -16.317338907335692  25.772535409369752  0.000000
2.652  0.000000  0.000000  0.000000  -25.765008827451243  -0.09833891211408682  0.8559381981429042  57.999651230204954  10.213332461167816  -2.6403358967349626  39.26268601524093  28.720023536290594  -14.128613776214772  26.24317119443577  0.000000
2.691  0.000000  0.000000  0.000000  -25.499836577177415  -0.6462678570984327  0.477501621032073  57.164240408714  9.907089870215147  -3.47857922485428  38.06086336510602  26.847576097758544  -11.880190042982619  26.67555725915285  0.000000
2.73  0.000000  0.000000  0.000000  -25.26568302580882  -1.1122883535916541  0.24587726796694737  56.25117475057286  9.531299960798396  -4.370345427236648  36.953349806922496  24.945822214979138  -9.71700713754182  27.028795650164344  0.000000
2.769  0.000000  0.000000  0.000000  -25.000218198468872  -1.4607951844735796  0.06982704756108084  55.17811287614129  9.16896245932884  -5.2840851776607485  36.201126059362366  23.02113158311758  -7.878437358520864  27.30313992111589  0.000000
2.808  0.000000  0.000000  0.000000  -24.74216578046494  -1.6654824151470564  -0.08413574880211311  53.903100144643275  8.820205680147712  -6.223243670482728  36.01431934228931  21.14840286125175  -6.597060553901342  27.510372864624998  0.000000
2.847  0.000000  0.000000  0.000000  -24.60931324977677  -1.6879145552489325  -0.13005344729210963  52.732047027550124  8.281712543505188  -7.038780441820428  35.66735797569455  19.29387233800314  -5.292295703813072  27.589924298525407  0.000000
2.886  0.000000  0.000000  0.000000  -24.730983286532357  -1.4538436289597667  -0.004820359253342291  52.06578072469114  7.380937109139082  -7.482083710011336  34.23455450519563  17.373107095834012  -3.123435687081941  27.500579688138174  0.000000
2.925  0.000000  0.000000  0.000000  -25.085774799449165  -0.9478357157289471  0.2513773957222056  51.68738359774434  6.237819426508341  -7.536110616696407  32.321984757348034  15.396336913107707  -0.5614292813588642  27.356468618231773  0.000000
2.964  0.000000  0.000000  0.000000  -25.51824691251871  -0.3862900422321165  0.5578545014990149  51.37086402389421  5.122853487017302  -7.459456211378044  30.602749115266835  13.42424984751978  1.7282454099604043  27.21062586092585  0.000000
3.003  0.000000  0.000000  0.000000  -25.962856268889237  0.08840014238636217  0.872263020234211  51.15523958819312  4.161840039350846  -7.423808285590505  29.09659934257875  11.515005850024384  3.6778523513698715  27.01592556941229  0.000000
3.042  0.000000  0.000000  0.000000  -26.39572780542749  0.4633689314512261  1.205549360850618  50.97731283652438  3.3735286473485147  -7.47295475771837  27.79105805317416  9.679546250431727  5.295565138007242  26.808262484169813  0.000000
3.081  0.000000  0.000000  0.000000  -26.812539435556744  0.7370148586468788  1.5592099107793274  50.86385289293258  2.737135816703098  -7.590810081662848  26.507544559758347  7.949682385086325  6.736831006979302  26.59138856520247  0.000000
3.12  0.000000  0.000000  0.000000  -27.205639198715463  0.9329343109678483  1.9353338866975518  50.80726852138341  2.222228060599387  -7.7393932105644705  25.182056074477757  6.339427663986683  8.072845859448481  26.376338460433875  0.000000
3.159  0.000000  0.000000  0.000000  -27.561802784834974  1.060233654251675  2.320484892628382  50.798263381598986  1.8168769182943987  -7.913969980444541  24.061866037385254  4.86489293593253  9.044176254261673  26.178898179756622  0.000000
3.198  0.000000  0.000000  0.000000  -27.8785181952946  1.1348388023122635  2.70090151530769  50.8242550545336  1.5083581216745992  -8.100566954658932  23.71778669474678  3.534081901266267  9.076468963619641  26.003164726184952  0.000000
3.237  0.000000  0.000000  0.000000  -28.15162826587804  1.165121069057427  3.0658967826177763  50.878322480518264  1.2868518745071906  -8.289065333067919  25.472359311230026  2.355487588055825  6.841383358869373  25.860284820053383  0.000000
3.276  0.000000  0.000000  0.000000  -28.38004846184504  1.1580522743303632  3.4064404382017894  50.95732515398359  1.1440706719938973  -8.470625867079386  33.77956551612454  1.3550383357823184  -2.1167989141115178  25.75488769995475  0.000000
3.315  0.000000  0.000000  0.000000  -28.562951873305867  1.1181664286809734  3.7159866524709906  51.0551863330504  1.0717733222746848  -8.6375978695161  68.72618720102042  0.6722863885655346  -37.88869523216815  25.694803565209956  0.000000
3.354  0.000000  0.000000  0.000000  -28.703015618116698  1.04985770484564  3.98616942699394  51.16928948651921  1.0646060351925961  -8.790712987157152  129.61083881126518  0.8044990306004001  -99.76984030805383  25.684179158673306  0.000000
3.393  0.000000  0.000000  0.000000  -28.800179003904294  0.9571389485451732  4.214597850147315  51.29390245985513  1.1154056689202596  -8.926553865428492  148.20728745148398  1.344324296822902  -119.51607153578547  25.72406586106409  0.000000
3.432  0.000000  0.000000  0.000000  -28.85814001404401  0.8443863103191442  4.398494357291102  51.4269030841243  1.2196325753377588  -9.044591766147807  152.14156070684535  1.8651635594086091  -124.72561232064413  25.809615511061743  0.000000
3.471  0.000000  0.000000  0.000000  -28.881805040332452  0.716771647259849  4.5381673582093365  51.566704773853246  1.3720737921526933  -9.141729834175315  151.98583779241005  2.311713951239156  -125.92537416346309  25.933363096850805  0.000000
3.51  0.000000  0.000000  0.000000  -28.87750401016846  0.5786929000878412  4.632200826243047  51.70999261847022  1.5706917288531586  -9.217454998035127  150.26589310670786  2.686425129974672  -125.59755098961408  26.08922896962545  0.000000
3.549  0.000000  0.000000  0.000000  -28.85327607297506  0.4350306669822166  4.6796225383656385  51.85912110791506  1.813254202012368  -9.267075542573881  147.8928984492182  2.998933911769471  -124.59928762634654  26.268333901056284  0.000000
3.588  0.000000  0.000000  0.000000  -28.820306795165447  0.288956449193898  4.677918301707399  52.01179196016155  2.101437849176429  -9.287440187164284  145.25201914415342  3.2647226812068397  -123.27003899395831  26.466337015376087  0.000000
3.627  0.000000  0.000000  0.000000  -28.789266050543667  0.14629552681654107  4.626441994299432  52.170855864236785  2.434521545033969  -9.270501969869478  142.58466660244477  3.4966355072122433  -121.7887188369505  26.67326748945151  0.000000
3.666  0.000000  0.000000  0.000000  -28.764783244299295  0.012218975282615748  4.524536620431686  52.33612245413427  2.8137240535419736  -9.211270622390265  140.14431218473692  3.708092801424168  -120.360999086115  26.891324163209852  0.000000
